<svg xmlns="http://www.w3.org/2000/svg" xmlns:xlink="http://www.w3.org/1999/xlink" width="220" height="68" viewBox="0 0 220 68">
  <defs>
    <clipPath id="clip-logo">
      <rect width="220" height="68"/>
    </clipPath>
  </defs>
  <g id="logo" clip-path="url(#clip-logo)">
    <g id="logo-2" data-name="logo">
      <g id="_30_Jahre" data-name="30 Jahre" transform="translate(153.812 -0.195)">
        <path id="Differenzmenge_3" data-name="Differenzmenge 3" d="M-223.618-312.414a32,32,0,0,1-12.532-2.53,32.078,32.078,0,0,1-10.233-6.9,32.08,32.08,0,0,1-6.9-10.234,32,32,0,0,1-2.53-12.532,32,32,0,0,1,2.53-12.532,32.092,32.092,0,0,1,6.9-10.234,32.1,32.1,0,0,1,10.233-6.9,32,32,0,0,1,12.532-2.53,32.006,32.006,0,0,1,12.533,2.53,32.1,32.1,0,0,1,10.233,6.9,32.1,32.1,0,0,1,6.9,10.234,32,32,0,0,1,2.53,12.532,32,32,0,0,1-2.53,12.532,32.09,32.09,0,0,1-6.9,10.234,32.084,32.084,0,0,1-10.233,6.9A32.006,32.006,0,0,1-223.618-312.414Zm-.111-4.584a.542.542,0,0,0-.541.542.542.542,0,0,0,.541.542h1.224a.533.533,0,0,0,.38-.171.532.532,0,0,0,.139-.392.56.56,0,0,0-.552-.52h-1.192Zm-4.288-.354a.554.554,0,0,0-.542.463.55.55,0,0,0,.454.628l1.084.151h.065l.043-.011h.033a.543.543,0,0,0,.541-.509.545.545,0,0,0-.509-.574l-1.083-.141A.556.556,0,0,0-228.016-317.352Zm9.846-.186a.537.537,0,0,0-.209.042l-1.083.184a.543.543,0,0,0-.355.214.543.543,0,0,0-.1.4.553.553,0,0,0,.542.455l.086-.032,1.083-.185h.037a.542.542,0,0,0,.49-.312.538.538,0,0,0-.1-.6A.546.546,0,0,0-218.17-317.538Zm-14.177-.772a.555.555,0,0,0-.521.371.543.543,0,0,0,.037.416.546.546,0,0,0,.32.266l1.084.314h.14l-.032.043a.616.616,0,0,0,.076.005.55.55,0,0,0,.542-.472.543.543,0,0,0-.105-.4.54.54,0,0,0-.361-.211l-1.018-.3A.545.545,0,0,0-232.347-318.31Zm18.218-.358a.59.59,0,0,0-.254.058l-1.007.336a.549.549,0,0,0-.357.682.55.55,0,0,0,.519.379l.271.022,1.083-.346a.592.592,0,0,0,.305-.337.587.587,0,0,0-.023-.453A.6.6,0,0,0-214.129-318.668Zm-21.111.252h0v.043a.538.538,0,0,0,.52-.424.54.54,0,0,0-.293-.6l-.953-.454a.526.526,0,0,0-.247-.062.515.515,0,0,0-.166.027.537.537,0,0,0-.312.274.543.543,0,0,0,.239.725l1,.476a.547.547,0,0,0,.108.011.535.535,0,0,0,.107-.011Zm25.07-1.993a.541.541,0,0,0-.26.067l-.942.487a.542.542,0,0,0-.238.725.52.52,0,0,0,.472.3h.015a.633.633,0,0,0,.239-.054l.975-.509a.541.541,0,0,0,.261-.323.538.538,0,0,0-.045-.413A.54.54,0,0,0-210.171-320.41Zm-29.724-1.766a.547.547,0,0,0-.445.23.54.54,0,0,0-.091.406.54.54,0,0,0,.222.352l.91.617a.566.566,0,0,0,.292.086.55.55,0,0,0,.455-.248.53.53,0,0,0,.077-.409.531.531,0,0,0-.24-.339c-.3-.2-.584-.389-.866-.595A.54.54,0,0,0-239.9-322.176Zm33.376-.58a.563.563,0,0,0-.328.105c-.2.159-.412.314-.618.463l-.019.014-.114.083-.094.069a.544.544,0,0,0-.222.352.537.537,0,0,0,.093.406.519.519,0,0,0,.43.228h.014a.531.531,0,0,0,.3-.1l.888-.65a.549.549,0,0,0,.108-.758A.558.558,0,0,0-206.519-322.755Zm-36.72-2.2a.527.527,0,0,0-.13.016.541.541,0,0,0-.4.4.54.54,0,0,0,.178.536c.238.238.488.469.73.692l.012.011.059.055a.591.591,0,0,0,.368.131l.032.022a.539.539,0,0,0,.5-.35.537.537,0,0,0-.141-.592l-.8-.736A.54.54,0,0,0-243.239-324.959Zm39.852-.655a.537.537,0,0,0-.384.16l-.747.747a.531.531,0,0,0-.159.379.534.534,0,0,0,.159.379.523.523,0,0,0,.39.174.573.573,0,0,0,.346-.13l.779-.779a.548.548,0,0,0,0-.769A.545.545,0,0,0-203.387-325.615Zm-42.682-2.545a.538.538,0,0,0-.329.112.546.546,0,0,0-.1.763l.682.877a.527.527,0,0,0,.415.205h.008a.5.5,0,0,0,.336-.151.533.533,0,0,0,.2-.363.533.533,0,0,0-.122-.4l-.65-.834A.543.543,0,0,0-246.068-328.16Zm45.471-.762a.545.545,0,0,0-.445.23c-.144.216-.3.429-.454.635l-.163.221a.542.542,0,0,0,.1.758.535.535,0,0,0,.32.108l0-.022h.013a.55.55,0,0,0,.42-.194c.227-.293.446-.589.65-.878a.543.543,0,0,0,.093-.406.542.542,0,0,0-.222-.352A.535.535,0,0,0-200.6-328.922Zm-47.81-2.857a.543.543,0,0,0-.259.066.545.545,0,0,0-.217.736l.542.953a.553.553,0,0,0,.473.271h.007a.5.5,0,0,0,.266-.076.556.556,0,0,0,.2-.747c-.169-.279-.338-.572-.531-.921A.541.541,0,0,0-248.407-331.78Zm6.868.085-.773.547a2.481,2.481,0,0,0,2.216,1.354l.113,0a2.587,2.587,0,0,0,1.051-.236,2.04,2.04,0,0,0,.73-.569,2.486,2.486,0,0,0,.408-.848,3.942,3.942,0,0,0,.14-1.02v-5.966h-1.073v5.891a2.29,2.29,0,0,1-.333,1.384,1.237,1.237,0,0,1-.93.422q-.044,0-.089,0h-.014a1.542,1.542,0,0,1-.8-.225A1.991,1.991,0,0,1-241.539-331.7Zm7.877-.837h3.08l.794,2.575h1.17l-2.876-8.477h-1.212l-2.855,8.477h1.094l.805-2.574Zm23.85-5.9v8.477l5-.031v-.913h-3.928v-3.058h3.219v-.923h-3.219v-2.65h3.8v-.9h-4.872Zm-8,0v8.477h1.074v-3.627h1.577l2.029,3.563h1.17l-2.147-3.681a2.612,2.612,0,0,0,1.384-.8,2.338,2.338,0,0,0,.515-1.589,2.57,2.57,0,0,0-.214-1.073,2.07,2.07,0,0,0-.612-.741,2.556,2.556,0,0,0-.944-.4,5.154,5.154,0,0,0-1.144-.129h-2.687Zm-7.937,4.507h3.938v3.97h1.073v-8.477h-1.073v3.542h-3.928v-3.542h-1.074v8.477h1.063v-3.969Zm27.351,1.285a.523.523,0,0,0-.166.027.538.538,0,0,0-.312.273c-.144.3-.308.614-.487.942a.53.53,0,0,0-.044.409.532.532,0,0,0,.26.317.473.473,0,0,0,.241.066h.026a.529.529,0,0,0,.469-.282c.192-.348.364-.673.509-.964a.54.54,0,0,0,.026-.415.535.535,0,0,0-.275-.311A.526.526,0,0,0-198.4-332.642Zm-51.751-3.109a.559.559,0,0,0-.184.031.565.565,0,0,0-.329.287.57.57,0,0,0-.029.438l.4,1.029a.551.551,0,0,0,.509.346h.011a.649.649,0,0,0,.228-.043.544.544,0,0,0,.3-.29.54.54,0,0,0,.005-.414c-.12-.3-.232-.615-.34-.919l-.007-.02-.021-.058A.57.57,0,0,0-250.15-335.75Zm53.365-.882a.553.553,0,0,0-.521.371c-.109.349-.216.669-.336,1.007a.54.54,0,0,0,.066.495.543.543,0,0,0,.443.23h.011a.556.556,0,0,0,.5-.325l.357-1.083a.543.543,0,0,0-.357-.671A.542.542,0,0,0-196.785-336.632Zm-54.448-3.212a.59.59,0,0,0-.1.009.547.547,0,0,0-.354.228.543.543,0,0,0-.09.411l.184,1.084a.539.539,0,0,0,.5.335h.02l.185.066a.549.549,0,0,0,.341-.239.546.546,0,0,0,.07-.41c-.084-.328-.148-.66-.217-1.029A.55.55,0,0,0-251.233-339.845Zm55.426-1.048a.545.545,0,0,0-.321.106.546.546,0,0,0-.214.355c-.057.4-.11.741-.184,1.083a.542.542,0,0,0,.433.628h.109l.011.032a.541.541,0,0,0,.519-.5c.017-.093.038-.189.059-.282l.011-.049a3.461,3.461,0,0,0,.114-.751.552.552,0,0,0-.455-.617A.488.488,0,0,0-195.807-340.892Zm-55.944-3.264h-.023a.527.527,0,0,0-.465.573v1.084a.544.544,0,0,0,.539.5l.045.032a.538.538,0,0,0,.371-.189.544.544,0,0,0,.128-.4,7.387,7.387,0,0,1-.054-1.083.548.548,0,0,0-.174-.376A.537.537,0,0,0-251.751-344.156Zm20.14,1.921h0c.187.011.377.016.563.016a9.515,9.515,0,0,0,5.147-1.508,4.726,4.726,0,0,0,2.06-4.109c0-2.535-1.567-4.016-4.658-4.4v-.076a5.959,5.959,0,0,0,3.037-1.781,4.408,4.408,0,0,0,1.073-2.973,3.616,3.616,0,0,0-1.642-3.122,7.823,7.823,0,0,0-4.1-1.16c-.142,0-.286,0-.429.012h-.177a13.069,13.069,0,0,0-3.365.441,10.25,10.25,0,0,0-3.026,1.437l2.082,3.359a7.04,7.04,0,0,1,3.692-1.2c.048,0,.1,0,.145,0a2.766,2.766,0,0,1,1.379.368,1.206,1.206,0,0,1,.569,1.074c0,1.3-1.289,1.953-3.831,1.953h-1.17v3.777h1.138l.2,0a10.276,10.276,0,0,1,2.094.216,2.5,2.5,0,0,1,1.266.623,1.619,1.619,0,0,1,.4,1.17,1.583,1.583,0,0,1-.751,1.459,4.786,4.786,0,0,1-2.07.474c-.115,0-.23,0-.344-.012a10.638,10.638,0,0,1-2.34-.29,11.853,11.853,0,0,1-2.479-.923v4.185a14.553,14.553,0,0,0,2.758.783,17.358,17.358,0,0,0,2.728.215Zm16.462-.011h0c.136.01.277.015.429.015a5.835,5.835,0,0,0,4.636-2.312c1.1-1.517,1.652-3.95,1.652-7.232,0-3.172-.57-5.588-1.7-7.179a5.735,5.735,0,0,0-4.68-2.425c-.113,0-.228,0-.342.01-.137-.01-.277-.015-.415-.015a5.808,5.808,0,0,0-4.64,2.332c-1.1,1.538-1.652,3.986-1.652,7.276-.007,3.147.56,5.548,1.685,7.136a5.754,5.754,0,0,0,4.671,2.4C-215.383-342.236-215.265-342.24-215.149-342.247Zm19.7-2.905a.542.542,0,0,0-.541.541v1.084a.539.539,0,0,0,.143.389.54.54,0,0,0,.376.174h.023a.548.548,0,0,0,.382-.158.542.542,0,0,0,.158-.4v-1.084A.542.542,0,0,0-195.444-345.152Zm-56.172-3.306a.555.555,0,0,0-.548.48c-.011.089-.023.179-.035.269l0,.012a5.961,5.961,0,0,0-.072.8.546.546,0,0,0,.128.4.537.537,0,0,0,.371.188h.086a.538.538,0,0,0,.5-.454c.01-.161.028-.319.048-.481a4.819,4.819,0,0,0,.049-.6.542.542,0,0,0-.465-.607l-.058,0Zm55.837-1.005a.5.5,0,0,0-.082.006.54.54,0,0,0-.358.216.544.544,0,0,0-.1.407c.017.118.037.235.054.335a4.42,4.42,0,0,1,.086.748.543.543,0,0,0,.531.488l.076-.055a.542.542,0,0,0,.476-.595c-.015-.124-.037-.25-.058-.372v-.013a4.1,4.1,0,0,1-.08-.7A.551.551,0,0,0-195.779-349.463Zm-54.967-3.234a.557.557,0,0,0-.53.4c-.1.361-.181.716-.264,1.06l0,.02a.542.542,0,0,0,.4.652h.13a.53.53,0,0,0,.52-.411l.259-1.029a.539.539,0,0,0-.045-.412.537.537,0,0,0-.323-.259A.533.533,0,0,0-250.746-352.7Zm53.994-.921a.528.528,0,0,0-.175.03.529.529,0,0,0-.314.264.539.539,0,0,0-.032.408l.064.216.027.091.017.057c.063.215.129.437.185.653a.541.541,0,0,0,.519.4h.152a.544.544,0,0,0,.379-.661c-.086-.332-.183-.65-.268-.93l-.046-.153a.534.534,0,0,0-.267-.319A.529.529,0,0,0-196.753-353.617Zm-52.536-3.145a.544.544,0,0,0-.493.316c-.147.324-.285.655-.419.974l-.013.031a.54.54,0,0,0-.028.456.541.541,0,0,0,.329.314.434.434,0,0,0,.1.012.414.414,0,0,0,.1-.012.553.553,0,0,0,.5-.357c.112-.283.247-.6.411-.964a.539.539,0,0,0,.016-.415.539.539,0,0,0-.282-.305A.536.536,0,0,0-249.288-356.762Zm50.916-.9a.55.55,0,0,0-.233.052.542.542,0,0,0-.3.328.55.55,0,0,0,.048.441l.455.963a.531.531,0,0,0,.483.314.558.558,0,0,0,.232-.086.55.55,0,0,0,.27-.715c-.149-.331-.3-.67-.465-1A.549.549,0,0,0-198.373-357.657Zm-48.842-2.859a.542.542,0,0,0-.455.247c-.151.222-.293.455-.418.661l-.008.011q-.078.13-.159.259a.55.55,0,0,0,.185.747.638.638,0,0,0,.282.077.545.545,0,0,0,.465-.271c.208-.343.387-.625.563-.888a.554.554,0,0,0-.163-.758A.541.541,0,0,0-247.215-360.517Zm46.65-.806a.537.537,0,0,0-.315.1.534.534,0,0,0-.222.346.531.531,0,0,0,.093.4c.051.076.1.153.155.23l.052.076.005.008c.115.169.25.368.373.563a.549.549,0,0,0,.455.249h.017a.516.516,0,0,0,.286-.086.543.543,0,0,0,.151-.747l-.607-.91a.536.536,0,0,0-.352-.223A.51.51,0,0,0-200.565-361.323Zm-44.03-2.588a.538.538,0,0,0-.379.155c-.246.268-.484.547-.725.834a.564.564,0,0,0,.076.769.586.586,0,0,0,.347.119.518.518,0,0,0,.39-.184l.03-.035c.233-.278.444-.527.663-.767a.544.544,0,0,0-.022-.736A.538.538,0,0,0-244.595-363.911Zm41.305-.752a.545.545,0,0,0-.384.16.545.545,0,0,0-.16.384.537.537,0,0,0,.16.384l.715.78a.544.544,0,0,0,.4.184l-.011-.022a.553.553,0,0,0,.494-.325.553.553,0,0,0-.083-.585l-.747-.8A.537.537,0,0,0-203.289-364.663Zm-38.24-2.251a.547.547,0,0,0-.347.126c-.273.221-.539.454-.833.715a.544.544,0,0,0,0,.759.55.55,0,0,0,.4.184.58.58,0,0,0,.325-.13c.255-.235.524-.462.8-.693a.543.543,0,0,0,.076-.758.543.543,0,0,0-.368-.2Zm34.894-.675a.527.527,0,0,0-.139.018.543.543,0,0,0-.4.485.541.541,0,0,0,.329.536l.823.661a.526.526,0,0,0,.332.119h.014l.052,0a.515.515,0,0,0,.359-.143.528.528,0,0,0,.128-.392.533.533,0,0,0-.193-.365c-.285-.242-.579-.47-.855-.682A.542.542,0,0,0-206.635-367.589Zm-31.317-1.8a.548.548,0,0,0-.274.075c-.26.147-.517.308-.744.451l-.142.089-.057.035a.554.554,0,0,0-.163.758.565.565,0,0,0,.455.238h.017a.516.516,0,0,0,.286-.086l.9-.552a.551.551,0,0,0,.185-.748A.537.537,0,0,0-237.953-369.385Zm27.817-.486a.519.519,0,0,0-.144.02.536.536,0,0,0-.324.259.545.545,0,0,0-.045.413.546.546,0,0,0,.261.323l.064.037.144.082c.234.133.476.27.7.412a.688.688,0,0,0,.282.076h.006a.542.542,0,0,0,.52-.4.542.542,0,0,0-.245-.611l-.049-.029c-.278-.162-.592-.346-.9-.513A.529.529,0,0,0-210.136-369.871Zm-23.95-1.427a.552.552,0,0,0-.2.039l-1.018.433a.542.542,0,0,0-.287.3.536.536,0,0,0,.016.415.528.528,0,0,0,.488.324.571.571,0,0,0,.228-.054c.377-.169.686-.3.974-.411a.543.543,0,0,0,.3-.289.539.539,0,0,0,.005-.415A.539.539,0,0,0-234.086-371.3Zm21.035,1.132h0l.053.032a.543.543,0,0,0,.1.01.552.552,0,0,0,.54-.448.546.546,0,0,0-.086-.413.55.55,0,0,0-.354-.231l-.379-.138-.005,0-.015-.006c-.238-.087-.46-.168-.683-.245a.54.54,0,0,0-.254-.064.546.546,0,0,0-.329.111.539.539,0,0,0-.2.549.542.542,0,0,0,.415.411l1,.433a.593.593,0,0,0,.1.008.591.591,0,0,0,.1-.008Zm-16.914-2.45a.535.535,0,0,0-.12.013c-.36.074-.708.169-1.044.261l-.04.01a.542.542,0,0,0-.362.209.54.54,0,0,0-.109.4.548.548,0,0,0,.541.475.692.692,0,0,0,.071,0l.151-.011,1.029-.26a.548.548,0,0,0,.348-.243.547.547,0,0,0,.074-.418A.556.556,0,0,0-229.964-372.616Zm11.754-.161a.528.528,0,0,0-.3.1.528.528,0,0,0-.222.361.542.542,0,0,0,.078.408.539.539,0,0,0,.344.231l1.072.206h.12l-.022.022a.608.608,0,0,0,.065,0,.545.545,0,0,0,.541-.481.542.542,0,0,0-.113-.4.542.542,0,0,0-.364-.2l-1.083-.227A.546.546,0,0,0-218.21-372.777Zm-7.538-.455-.038,0-1.083.109a.542.542,0,0,0-.433.595.555.555,0,0,0,.513.476,4.152,4.152,0,0,1,1.078-.1.545.545,0,0,0,.5-.58A.545.545,0,0,0-225.748-373.233Zm4.372,1.1h0a.543.543,0,0,0,.539-.542.542.542,0,0,0-.542-.542,5.989,5.989,0,0,0-1.083-.065.567.567,0,0,0-.563.52.543.543,0,0,0,.169.418.538.538,0,0,0,.372.148l.055,0a6.016,6.016,0,0,0,1.053.066h0Zm-9.475,38.746h-2.543l.408-1.288c.065-.2.137-.411.207-.61.092-.261.186-.529.264-.8.116-.394.268-.913.409-1.438l.418,1.438.054.178c.122.4.246.817.386,1.228l.4,1.287Zm15.74-1h0c-.056,0-.113,0-.169-.006h-1.459v-3.134h1.459c.059,0,.119-.006.178-.006a2.814,2.814,0,0,1,1.336.339,1.28,1.28,0,0,1,.536,1.17,1.475,1.475,0,0,1-.536,1.234A2.444,2.444,0,0,1-215.111-334.394Zm-.037-11.9c-.6,0-1.049-.4-1.319-1.192a16.013,16.013,0,0,1-.4-4.292,16.424,16.424,0,0,1,.4-4.378c.245-.791.689-1.192,1.319-1.192s1.063.419,1.331,1.245a16.4,16.4,0,0,1,.4,4.293,16.124,16.124,0,0,1-.4,4.292C-214.078-346.692-214.514-346.292-215.149-346.292Z" transform="translate(256 377)"/>
      </g>
      <g id="M-S-Logo" transform="translate(0.564 1.48)">
        <path id="Pfad_10" data-name="Pfad 10" d="M407.3,25.394A14.667,14.667,0,0,1,421.923,40a14.915,14.915,0,0,1-14.614,14.955H381.4V44.744H406.19a4.67,4.67,0,1,0,0-9.324h-12.9c-8,0-14.334-6.81-14.334-14.745a14.371,14.371,0,0,1,14.334-14.4h23.349v9.952H394.061a4.591,4.591,0,1,0,0,9.182Z" transform="translate(-279.709 -4.628)"/>
        <path id="Pfad_11" data-name="Pfad 11" d="M245.02,29.278l-.076,1.509c-.236,4.824-1.655,6.629-2.121,7.223a11.836,11.836,0,0,1-10.429,5.05c-6.713,0-8.551-2.962-8.679-4.751-.291-4.036,7.229-7.111,11.862-9.067,17.809-7.53,17.045-16.387,14.4-21.345C247.523,3.308,241.45,0,234.263,0c-.524,0-1.048.021-1.548.052a29.644,29.644,0,0,0-3.769.576C223.08,2.051,217.47,6.461,217.47,13.006c0,4.041,3.339,8.97,6.639,11.82-7.071,3.973-10.819,8.166-10.819,14,0,4.683,4.19,13.4,19.522,13.4a22.037,22.037,0,0,0,12.129-3.42v1.571h9.895V29.278ZM231.314,9.484a7.416,7.416,0,0,1,3.276-.647c3.5.018,6.343,2,6.343,4.452,0,2.721-2.962,4.976-7.192,6.98-3.279-2.1-5.173-4.348-5.429-6.39a3.144,3.144,0,0,1-.063-.589C228.25,11.681,229.481,10.267,231.314,9.484Z" transform="translate(-157.428)"/>
        <path id="Pfad_12" data-name="Pfad 12" d="M43.091,54.6,40.4,27.2l-.265-.029L31.559,54.6H22.27L13.7,27.091l-.265.026L10.8,54.6H0L5.288,5.79H17.857L26.95,36.637l.589-2.1L35.97,5.79H48.528L53.889,54.6Z" transform="translate(0 -4.274)"/>
        <path id="Pfad_13" data-name="Pfad 13" d="M3.228,225.6a5.911,5.911,0,0,1-.993-.435,1.241,1.241,0,0,1-.427-.4,1.116,1.116,0,0,1-.12-.558.825.825,0,0,1,.327-.7,1.572,1.572,0,0,1,.974-.262,4.384,4.384,0,0,1,1.7.369l.128.052.348-.977-.11-.05a5.11,5.11,0,0,0-2.056-.411,2.771,2.771,0,0,0-1.757.524A1.75,1.75,0,0,0,.564,224.2a2.043,2.043,0,0,0,.469,1.388,3.6,3.6,0,0,0,1.509.9,7.22,7.22,0,0,1,1.066.456,1.289,1.289,0,0,1,.464.4,1.016,1.016,0,0,1,.134.553.93.93,0,0,1-.377.786,2.014,2.014,0,0,1-1.2.293A5.077,5.077,0,0,1,1.6,228.87a5.212,5.212,0,0,1-.953-.291L.47,228.5v1.1l.073.037a4.9,4.9,0,0,0,2.053.346,3.161,3.161,0,0,0,1.977-.566,1.922,1.922,0,0,0,.749-1.6,1.86,1.86,0,0,0-.466-1.31A4.183,4.183,0,0,0,3.228,225.6Z" transform="translate(-0.347 -164.026)"/>
        <path id="Pfad_14" data-name="Pfad 14" d="M27.774,222.18a3.306,3.306,0,0,0-2.59,1.027,4.139,4.139,0,0,0-.914,2.85,4.268,4.268,0,0,0,.909,2.881,3.26,3.26,0,0,0,2.588,1.029,3.207,3.207,0,0,0,2.559-1.048,4.191,4.191,0,0,0,.919-2.857,4.148,4.148,0,0,0-.917-2.839A3.259,3.259,0,0,0,27.774,222.18Zm0,6.77a2.1,2.1,0,0,1-1.736-.72,3.361,3.361,0,0,1-.608-2.169,3.289,3.289,0,0,1,.6-2.145,2.145,2.145,0,0,1,1.744-.718,2.05,2.05,0,0,1,1.723.712,3.384,3.384,0,0,1,.589,2.15,3.427,3.427,0,0,1-.592,2.171,2.081,2.081,0,0,1-1.729.71Z" transform="translate(-17.914 -163.99)"/>
        <path id="Pfad_15" data-name="Pfad 15" d="M56.98,230.186h1.11v-3.119h3.025v-1.014H58.09v-2.41h3.219V222.63H56.98Z" transform="translate(-42.057 -164.322)"/>
        <path id="Pfad_16" data-name="Pfad 16" d="M80.28,223.644h2.31v6.542H83.7v-6.542H86.01V222.63H80.28Z" transform="translate(-59.254 -164.322)"/>
        <path id="Pfad_17" data-name="Pfad 17" d="M115.284,226.988c-.1.372-.175.715-.238,1.029-.081-.377-.173-.731-.262-1.048l-1.4-4.568h-.471v-.092l-.016.092h-.6l-1.341,4.52a9.346,9.346,0,0,0-.262,1.069c-.063-.312-.139-.644-.225-.993l-1.179-4.6H108.1l2.009,7.556h1.048L112.613,225c.089-.3.168-.587.23-.859h0c.089.338.165.608.236.822l1.5,4.976h1.035l2.022-7.556h-1.181Z" transform="translate(-79.788 -164.086)"/>
        <path id="Pfad_18" data-name="Pfad 18" d="M149.969,222.51h-.89l-2.988,7.6h1.139l.9-2.32h2.747l.909,2.32h1.158l-2.946-7.514Zm.542,4.243h-1.983l.786-2.1c.076-.212.141-.416.2-.61q.1.343.212.613Z" transform="translate(-107.828 -164.234)"/>
        <path id="Pfad_19" data-name="Pfad 19" d="M183.882,224.822a1.993,1.993,0,0,0-.691-1.65,3.272,3.272,0,0,0-2.064-.542H179v7.556h1.108V227.15h1.31l1.773,3.035h1.31l-2.022-3.342A2.035,2.035,0,0,0,183.882,224.822Zm-3.779-1.186h.974a2.208,2.208,0,0,1,1.291.293,1.087,1.087,0,0,1,.375.938,1.189,1.189,0,0,1-.375.972,1.9,1.9,0,0,1-1.231.327H180.1Z" transform="translate(-132.119 -164.322)"/>
        <path id="Pfad_20" data-name="Pfad 20" d="M207.43,230.186h4.329v-1.019h-3.221v-2.425h3.028v-1.008h-3.028v-2.09h3.221V222.63H207.43Z" transform="translate(-153.103 -164.322)"/>
        <path id="Pfad_21" data-name="Pfad 21" d="M244.75,230.186h4.329v-1.019H245.86v-2.425h3.025v-1.008H245.86v-2.09h3.219V222.63H244.75Z" transform="translate(-180.649 -164.322)"/>
        <path id="Pfad_22" data-name="Pfad 22" d="M275.568,226.907c0,.215,0,.561.024,1.048,0,.173.016.322.024.445l-3.758-5.762-.039-.058H270.66v7.556h1.048v-4.264c0-.479-.018-1-.052-1.556l3.761,5.762.039.06h1.168v-7.545h-1.048Z" transform="translate(-199.773 -164.285)"/>
        <path id="Pfad_23" data-name="Pfad 23" d="M305.215,226.816h1.632v2.011a6.126,6.126,0,0,1-1.351.149,2.668,2.668,0,0,1-2.025-.723,3.043,3.043,0,0,1-.686-2.153,2.979,2.979,0,0,1,.712-2.111,2.619,2.619,0,0,1,1.988-.752,4.753,4.753,0,0,1,1.852.409l.118.05.435-.987-.123-.052a5.654,5.654,0,0,0-2.226-.44,4.387,4.387,0,0,0-2.072.469,3.222,3.222,0,0,0-1.37,1.359,4.321,4.321,0,0,0-.471,2.056,4.033,4.033,0,0,0,.956,2.852,3.51,3.51,0,0,0,2.677,1.027,9.347,9.347,0,0,0,1.409-.094,8.364,8.364,0,0,0,1.2-.285l.092-.029V225.8h-2.742Z" transform="translate(-222.629 -164.017)"/>
        <rect id="Rechteck_3" data-name="Rechteck 3" width="1.108" height="7.559" transform="translate(88.071 58.308)"/>
        <path id="Pfad_24" data-name="Pfad 24" d="M356.025,226.914c0,.215,0,.56.026,1.048,0,.173.016.322.021.448l-3.756-5.762-.039-.058H351.12v7.556h1.048V225.88c0-.477-.016-1-.05-1.556l3.758,5.762.039.06h1.171V222.6h-1.048Z" transform="translate(-259.16 -164.293)"/>
        <path id="Pfad_25" data-name="Pfad 25" d="M383.97,230.186H388.3v-1.019h-3.221v-2.425H388.1v-1.008h-3.025v-2.09H388.3V222.63H383.97Z" transform="translate(-283.407 -164.322)"/>
        <path id="Pfad_26" data-name="Pfad 26" d="M410.41,230.186h4.329v-1.019h-3.221v-2.425h3.028v-1.008h-3.028v-2.09h3.221V222.63H410.41Z" transform="translate(-302.922 -164.322)"/>
        <path id="Pfad_27" data-name="Pfad 27" d="M441.227,224.83a1.993,1.993,0,0,0-.691-1.647,3.272,3.272,0,0,0-2.064-.542H436.34V230.2h1.108v-3.038h1.309l1.768,3.035h1.31l-2.019-3.342A2.032,2.032,0,0,0,441.227,224.83Zm-3.779-1.186h.974a2.209,2.209,0,0,1,1.291.293,1.087,1.087,0,0,1,.375.938,1.2,1.2,0,0,1-.372.972,1.894,1.894,0,0,1-1.234.327h-1.034Z" transform="translate(-322.061 -164.33)"/>
        <rect id="Rechteck_4" data-name="Rechteck 4" width="1.108" height="7.559" transform="translate(121.872 58.308)"/>
        <path id="Pfad_28" data-name="Pfad 28" d="M484.556,226.914c0,.212,0,.558.026,1.048a2.869,2.869,0,0,0,.021.448l-3.756-5.762-.039-.058H479.65v7.556H480.7V225.88c0-.479-.016-1-.05-1.556l3.758,5.762.039.06h1.171V222.6h-1.048Z" transform="translate(-354.028 -164.293)"/>
        <path id="Pfad_29" data-name="Pfad 29" d="M514.2,225.8v1.019h1.634v2.011a6.147,6.147,0,0,1-1.354.149,2.662,2.662,0,0,1-2.022-.723,3.06,3.06,0,0,1-.686-2.153,2.967,2.967,0,0,1,.712-2.111,2.619,2.619,0,0,1,1.988-.752,4.733,4.733,0,0,1,1.849.409l.118.05.435-.987-.12-.052a5.678,5.678,0,0,0-2.229-.44,4.368,4.368,0,0,0-2.069.469,3.226,3.226,0,0,0-1.372,1.359,4.345,4.345,0,0,0-.471,2.056,4.022,4.022,0,0,0,.959,2.852,3.514,3.514,0,0,0,2.677,1.027,9.281,9.281,0,0,0,1.406-.094,8.362,8.362,0,0,0,1.2-.285l.092-.029V225.8Z" transform="translate(-376.877 -164.017)"/>
      </g>
    </g>
  </g>
</svg>
